<?xml version="1.0" standalone="no"?>
<!DOCTYPE svg PUBLIC "-//W3C//DTD SVG 20010904//EN"
 "http://www.w3.org/TR/2001/REC-SVG-20010904/DTD/svg10.dtd">
<svg version="1.0" xmlns="http://www.w3.org/2000/svg"
 width="1000.000000pt" height="932.000000pt" viewBox="0 0 1000.000000 932.000000"
 preserveAspectRatio="xMidYMid meet">

<g transform="translate(0.000000,932.000000) scale(0.100000,-0.100000)"
fill="#000000" stroke="none">
<path d="M4387 8400 c-26 -16 -59 -46 -74 -67 -24 -35 -83 -73 -111 -73 -24 0
-52 -40 -52 -73 0 -24 -8 -40 -30 -59 -23 -20 -30 -35 -30 -62 0 -19 5 -38 10
-41 6 -4 7 -12 3 -18 -4 -7 -9 -46 -12 -87 -11 -200 2 -273 70 -416 46 -97 47
-93 -40 -189 -31 -35 -71 -81 -90 -104 -19 -22 -39 -41 -44 -41 -5 0 -7 17 -4
38 7 40 -4 69 -22 58 -7 -5 -11 7 -11 38 0 24 -5 57 -12 73 -6 15 -12 42 -14
58 -1 17 -14 63 -29 104 -15 40 -31 116 -37 168 -7 56 -17 100 -25 109 -31 31
-44 -15 -19 -64 7 -15 17 -47 21 -72 4 -25 13 -68 21 -96 8 -28 19 -75 23
-105 5 -30 12 -62 16 -71 5 -12 2 -18 -8 -18 -24 0 -35 22 -52 105 -9 44 -24
94 -34 111 -10 16 -21 48 -25 70 -7 38 -30 74 -48 74 -17 0 -7 -41 31 -123 25
-53 41 -106 44 -139 3 -29 6 -57 7 -63 9 -37 -16 -47 -43 -17 -8 9 -32 49 -52
87 -20 39 -42 77 -49 85 -13 16 -40 79 -52 119 -3 13 -19 44 -35 69 -16 25
-29 56 -29 69 0 29 -29 45 -53 28 -25 -18 -22 -26 28 -81 25 -27 45 -55 45
-64 0 -8 9 -26 20 -40 11 -14 20 -30 20 -37 0 -12 44 -96 60 -118 5 -5 11 -27
15 -48 4 -20 11 -40 16 -43 5 -3 9 -14 9 -25 0 -26 33 -89 59 -113 29 -27 28
-59 -1 -51 -50 14 -68 28 -62 48 4 13 2 17 -5 13 -6 -4 -11 -14 -11 -22 0 -11
-6 -13 -22 -8 -28 8 -23 -1 -42 68 -10 32 -19 56 -22 53 -3 -3 -1 -22 5 -44
20 -69 15 -69 -87 -3 -56 37 -84 49 -102 46 -16 -3 -46 7 -85 28 -33 18 -65
31 -72 29 -7 -2 -21 0 -31 6 -15 8 -23 7 -31 -3 -9 -11 -3 -18 31 -35 24 -11
67 -43 97 -69 l54 -48 -37 -23 c-67 -42 -157 -5 -150 62 l3 32 -28 -32 c-33
-39 -44 -42 -31 -8 13 33 -3 32 -28 -2 -20 -28 -20 -28 -41 -8 -12 10 -19 25
-17 32 3 7 1 13 -3 13 -5 0 -11 -6 -14 -14 -7 -17 -69 -49 -76 -39 -13 18 -70
41 -74 30 -5 -17 -27 2 -27 26 0 16 -3 18 -12 9 -9 -9 -6 -18 12 -37 l24 -26
-29 -24 c-34 -28 -63 -32 -70 -10 -3 8 -7 22 -10 31 -8 26 -19 7 -17 -29 2
-28 -3 -35 -37 -54 -49 -28 -67 -29 -81 -3 -14 27 -29 17 -22 -15 5 -28 0 -30
-28 -13 -26 17 -37 3 -16 -21 24 -26 6 -71 -28 -71 -26 0 -37 24 -30 64 4 25
-28 46 -71 46 -20 0 -25 -6 -31 -37 -4 -21 -16 -57 -26 -80 -11 -24 -22 -76
-25 -116 -4 -46 -12 -76 -21 -83 -13 -9 -12 -12 7 -17 38 -10 25 -77 -16 -77
-13 0 -21 -4 -18 -10 3 -5 21 -10 39 -10 25 0 38 -7 50 -25 9 -13 16 -26 16
-28 0 -3 -20 -10 -44 -16 -55 -14 -72 -33 -18 -20 55 13 79 11 86 -6 7 -19
-14 -55 -31 -55 -7 0 -13 -4 -13 -10 0 -15 17 -12 46 6 23 16 26 16 47 -3 12
-11 31 -23 42 -27 12 -4 15 -10 9 -14 -11 -7 -27 -42 -19 -42 2 0 16 5 31 10
26 10 26 10 21 -20 -8 -35 5 -39 27 -8 15 21 17 21 33 5 10 -9 18 -27 18 -40
1 -13 5 -29 9 -35 4 -7 2 -20 -5 -28 -17 -21 -3 -30 25 -15 18 10 32 11 57 3
69 -21 115 -24 129 -8 19 23 50 20 50 -4 0 -12 6 -31 14 -43 8 -12 17 -33 21
-45 6 -22 4 -23 -27 -21 -23 2 -32 0 -30 -10 2 -9 -4 -12 -18 -8 -11 3 -23 1
-26 -4 -8 -14 -22 -11 -44 11 -26 26 -54 17 -38 -13 21 -38 18 -47 -15 -49
-18 0 -41 -1 -52 -2 -11 0 -21 7 -23 17 -4 19 32 25 43 7 8 -13 25 -13 25 -1
0 5 -9 12 -19 16 -10 3 -21 15 -24 27 -5 16 -9 19 -19 10 -10 -8 -35 0 -103
34 -50 24 -97 43 -105 41 -11 -3 -10 -6 5 -12 67 -26 145 -66 145 -75 0 -5
-16 -10 -35 -10 -24 0 -35 -5 -35 -15 0 -8 -13 -21 -30 -30 -16 -9 -30 -21
-30 -28 0 -7 -6 -25 -12 -40 -10 -20 -20 -27 -40 -27 -31 0 -36 -11 -14 -29 8
-7 14 -25 14 -40 -1 -16 2 -33 6 -40 17 -27 -35 -8 -68 26 -19 20 -38 34 -42
30 -4 -3 7 -20 25 -36 35 -33 38 -43 16 -61 -11 -9 -20 -8 -43 9 -16 11 -35
27 -42 36 -7 9 -32 30 -54 48 l-41 32 38 -45 c49 -58 47 -56 82 -87 25 -23 27
-28 12 -31 -9 -2 -36 5 -60 16 -23 11 -49 22 -57 26 -8 3 -35 20 -60 36 -25
17 -73 44 -107 61 -35 17 -66 35 -69 40 -3 5 -10 7 -15 3 -5 -3 -21 1 -34 10
-16 10 -26 12 -30 5 -11 -16 21 -45 64 -58 56 -16 164 -84 177 -110 16 -32 48
-59 78 -67 31 -7 32 -12 9 -29 -14 -11 -15 -15 -4 -28 7 -9 19 -13 28 -10 11
4 14 0 11 -18 -2 -19 -8 -23 -28 -21 -19 1 -21 0 -10 -7 18 -12 7 -17 -65 -25
-27 -4 -53 -13 -57 -21 -5 -8 -16 -11 -24 -8 -9 3 -19 1 -23 -6 -4 -6 -35 -17
-69 -24 -52 -11 -59 -14 -44 -24 15 -10 12 -12 -15 -12 -22 -1 -33 -6 -33 -15
0 -8 -14 -17 -31 -21 -17 -4 -33 -14 -36 -22 -3 -8 -17 -19 -30 -24 -20 -7
-24 -14 -19 -33 4 -16 -1 -29 -14 -41 -17 -16 -20 -26 -14 -64 3 -25 12 -53
19 -61 7 -8 10 -21 8 -28 -3 -7 1 -20 8 -28 7 -9 18 -26 24 -38 6 -11 25 -25
43 -31 17 -5 32 -14 32 -20 0 -22 22 -34 41 -22 14 9 22 7 38 -7 17 -16 35
-19 98 -17 60 2 75 -1 66 -10 -6 -6 -9 -18 -6 -25 6 -16 -5 -21 -162 -70 -66
-20 -127 -43 -136 -51 -9 -8 -26 -15 -38 -16 -32 -2 -19 -22 17 -25 20 -2 41
4 59 18 16 11 37 22 48 24 11 2 40 11 65 19 25 8 86 17 135 20 85 4 91 3 107
-18 17 -23 17 -23 -17 -29 -20 -4 -40 -4 -45 -1 -22 13 -8 -14 14 -28 21 -14
25 -14 45 6 17 17 23 19 30 9 13 -21 1 -62 -19 -62 -23 0 -44 -26 -36 -45 3
-8 12 -15 21 -15 8 0 15 -5 15 -11 0 -6 -7 -8 -16 -5 -11 4 -15 2 -11 -8 4 -9
-3 -16 -16 -20 -30 -8 -4 -25 29 -18 29 5 33 -21 7 -50 -17 -19 -16 -19 12
-13 29 6 29 6 10 -10 -16 -13 -18 -19 -7 -35 17 -28 3 -25 -68 15 -68 38 -108
49 -48 12 21 -12 61 -44 88 -71 58 -57 55 -77 -8 -58 -22 7 -51 12 -65 12 -14
0 -29 5 -32 10 -3 6 -13 10 -21 10 -8 0 -33 9 -57 19 -53 24 -136 51 -156 51
-9 0 -29 7 -45 15 -16 8 -39 12 -52 9 -14 -4 -34 0 -48 9 -22 15 -24 15 -29
-4 -7 -26 47 -62 83 -55 23 4 86 -12 135 -34 11 -5 35 -12 53 -15 18 -4 48
-22 66 -40 41 -40 106 -75 141 -75 30 0 33 -15 4 -30 -20 -11 -20 -13 -3 -31
11 -12 24 -17 39 -13 28 7 35 -4 24 -35 -7 -19 -14 -22 -36 -18 -26 5 -27 4
-8 -9 17 -13 18 -16 5 -24 -8 -5 -29 -10 -47 -10 -17 0 -38 -7 -47 -15 -8 -8
-22 -15 -31 -15 -10 0 -15 -7 -13 -17 2 -14 -5 -19 -29 -21 -21 -2 -33 -9 -33
-18 0 -18 -98 -63 -138 -65 l-27 -1 28 -11 c36 -14 34 -25 -5 -29 -25 -2 -34
-8 -36 -24 -2 -12 -17 -27 -37 -37 -23 -11 -35 -24 -35 -37 0 -12 -12 -26 -30
-35 -31 -16 -38 -33 -19 -52 8 -8 6 -19 -5 -41 -9 -17 -16 -37 -16 -44 0 -26
44 -118 57 -118 7 0 13 -6 14 -12 1 -7 2 -21 3 -31 0 -10 12 -23 26 -30 14 -7
25 -18 25 -26 0 -17 44 -40 79 -41 18 0 35 -9 48 -26 l20 -25 20 20 c15 17 23
19 38 11 10 -6 21 -14 24 -19 5 -8 -152 -91 -173 -91 -6 0 -11 -4 -11 -8 0
-10 -98 -42 -128 -42 -25 0 -37 -17 -34 -46 2 -15 -11 -29 -47 -53 -28 -17
-54 -37 -58 -44 -8 -14 36 13 88 55 20 15 46 28 58 28 11 0 25 9 31 19 5 11
27 25 47 31 21 7 61 27 88 46 28 18 81 45 119 59 38 15 82 35 97 46 15 10 35
19 46 19 10 0 27 7 37 15 24 18 56 20 56 3 -1 -25 -87 -106 -141 -133 -78 -40
-159 -93 -159 -105 0 -5 7 -10 16 -10 24 0 192 107 240 152 38 36 44 38 63 26
11 -7 21 -16 21 -19 0 -4 -19 -18 -43 -32 -23 -14 -53 -37 -66 -51 -14 -14
-30 -26 -37 -26 -7 0 -14 -3 -16 -8 -5 -12 -110 -92 -121 -92 -18 0 -46 -31
-40 -46 10 -26 34 -15 96 44 120 113 247 206 247 182 0 -6 11 -10 25 -10 13 0
28 -6 32 -13 4 -8 17 -19 28 -24 17 -10 16 -12 -19 -27 -21 -9 -47 -16 -57
-16 -11 0 -19 -5 -19 -11 0 -7 9 -9 24 -5 16 4 26 1 30 -9 3 -8 10 -15 15 -15
6 0 8 6 5 14 -7 17 31 40 52 32 8 -3 14 -19 14 -38 0 -26 -6 -37 -30 -50 -47
-27 -35 -91 14 -72 8 3 17 1 21 -5 4 -7 -4 -11 -19 -11 -27 0 -35 -14 -13 -24
8 -4 9 -8 1 -11 -6 -3 -20 -12 -30 -20 -18 -14 -18 -14 3 -15 12 0 33 4 48 10
20 8 27 7 32 -6 3 -9 26 -25 51 -35 l45 -19 -5 -50 c-5 -45 -3 -51 16 -55 12
-3 30 -4 40 -2 12 1 26 -9 38 -29 l18 -32 -35 -42 c-19 -23 -35 -48 -35 -56 0
-18 28 -17 60 1 41 24 63 17 93 -26 24 -35 27 -45 18 -70 -6 -16 -7 -37 -4
-45 5 -14 3 -15 -16 -4 -13 6 -30 9 -39 5 -15 -6 -14 -9 7 -26 13 -10 32 -19
42 -19 22 0 69 -20 69 -30 0 -4 24 -12 54 -19 30 -7 66 -21 81 -33 l26 -20
-20 -22 c-11 -11 -43 -44 -72 -72 l-51 -50 -61 13 c-34 7 -79 13 -99 13 -35 0
-85 8 -191 32 -34 7 -52 7 -59 0 -15 -15 43 -29 225 -52 86 -11 175 -28 197
-36 l40 -16 -32 -37 c-41 -47 -63 -62 -91 -63 -12 0 -72 -4 -132 -9 -74 -7
-155 -6 -243 1 -135 11 -161 8 -143 -14 7 -8 61 -13 168 -15 87 -1 198 -6 247
-9 l90 -7 -110 -72 c-63 -42 -121 -73 -135 -73 -15 0 -46 -17 -77 -44 -28 -24
-66 -47 -83 -51 -17 -4 -54 -18 -83 -31 -29 -13 -83 -27 -121 -31 -55 -6 -70
-12 -73 -25 -3 -13 3 -18 22 -18 33 0 120 23 171 45 22 10 80 21 128 25 88 8
127 25 127 56 0 8 18 23 40 34 22 11 40 18 40 15 0 -12 -150 -192 -204 -245
-61 -59 -69 -89 -45 -159 11 -32 10 -35 -42 -88 -63 -64 -103 -87 -133 -78
-11 3 -84 10 -161 15 -126 7 -151 12 -240 45 -127 48 -245 107 -364 184 -52
33 -109 63 -127 67 -87 16 -194 -106 -210 -239 -17 -148 100 -460 238 -634 80
-100 119 -118 316 -148 195 -29 313 -86 441 -213 120 -119 154 -142 209 -142
34 0 58 7 84 25 96 65 198 276 202 420 3 76 14 104 79 197 43 62 48 66 67 44
17 -21 77 -39 105 -32 14 4 45 36 79 83 146 205 190 261 301 385 182 203 333
348 515 493 91 73 171 140 179 149 7 8 17 13 22 10 6 -3 28 13 51 35 22 23 45
41 50 41 5 0 22 10 38 22 16 12 32 19 35 16 10 -9 -6 -37 -25 -43 -10 -3 -21
-17 -24 -31 -4 -14 -12 -24 -18 -22 -16 6 -48 -59 -48 -94 0 -16 5 -37 12 -48
9 -14 9 -25 1 -42 -32 -69 -44 -108 -41 -129 4 -23 5 -23 17 6 6 17 14 37 17
45 8 23 20 -4 29 -64 4 -27 13 -60 22 -72 20 -32 3 -113 -49 -224 -22 -47 -46
-101 -53 -120 -7 -19 -25 -58 -39 -86 -14 -29 -26 -56 -26 -62 0 -16 -78 -160
-126 -231 -24 -36 -44 -71 -44 -78 0 -19 24 -16 42 5 24 27 120 190 160 272
43 85 54 104 85 139 12 14 35 56 50 94 16 38 45 87 67 110 21 23 51 64 65 91
30 56 54 77 72 59 16 -16 -26 -108 -56 -121 -29 -13 -38 -44 -27 -92 l8 -34
23 64 c13 36 26 67 30 70 3 3 11 13 16 24 13 23 31 21 28 -2 -2 -9 -6 -37 -9
-61 -8 -52 10 -50 20 2 4 22 21 47 46 70 22 19 40 40 40 46 0 12 33 23 51 16
18 -7 69 37 69 60 0 10 5 15 14 12 7 -3 18 -1 24 5 6 6 16 7 28 0 11 -5 28 -6
39 -1 11 4 22 8 25 8 3 1 6 -38 6 -86 1 -49 6 -126 11 -173 9 -82 10 -84 18
-42 7 41 8 42 26 26 13 -12 17 -24 13 -38 -4 -12 -8 -41 -10 -66 -1 -25 -3
-46 -4 -47 -2 -2 -4 -7 -5 -13 -1 -5 -4 -11 -5 -12 -1 -2 -4 -32 -6 -68 -3
-56 0 -69 19 -92 l23 -28 31 23 c18 12 39 40 47 62 24 64 38 126 32 141 -7 19
-3 18 52 -10 83 -42 155 -58 249 -55 78 3 87 1 94 -16 8 -18 8 -18 6 3 -2 22
5 26 88 47 129 33 257 83 529 206 l239 109 31 -18 c18 -10 45 -18 61 -17 23 1
38 -7 63 -34 35 -38 34 -23 -2 18 -13 15 -17 25 -10 28 8 2 10 18 7 42 l-5 38
88 32 c134 49 264 79 412 96 160 18 152 18 152 4 0 -6 7 -35 16 -65 12 -41 20
-54 35 -54 28 0 24 36 -7 82 -15 21 -24 42 -20 46 14 14 64 -56 85 -121 26
-76 68 -149 155 -266 85 -115 104 -153 126 -260 23 -115 47 -154 105 -177 144
-55 300 98 321 315 7 68 -11 332 -26 383 -6 20 -38 79 -72 130 -78 118 -99
174 -103 266 -2 40 -6 76 -9 79 -11 12 -6 61 8 72 8 7 17 23 20 36 8 32 30 33
24 1 -4 -17 -1 -23 9 -19 7 3 13 11 13 18 0 7 6 18 13 24 11 8 19 5 35 -12 12
-13 21 -25 20 -28 -2 -2 6 5 17 17 42 43 49 45 95 29 50 -18 53 -18 45 -5 -13
20 14 9 29 -12 9 -12 18 -19 22 -15 3 3 -6 18 -22 32 l-28 26 31 31 c34 34 61
33 70 -2 9 -33 25 -23 18 11 -6 26 -2 34 32 64 43 38 55 42 73 20 20 -24 30
-17 24 15 -7 33 -3 36 26 18 26 -16 37 -3 17 20 -25 27 -21 60 8 74 31 14 35
10 42 -41 6 -44 25 -56 74 -49 18 2 25 10 27 33 1 17 10 58 18 93 10 42 13 81
8 122 -4 40 -3 65 5 74 9 11 7 15 -9 19 -15 4 -20 13 -20 39 0 28 5 36 28 45
26 10 25 11 -19 12 -32 1 -51 7 -64 21 -18 20 -18 21 1 35 10 8 26 15 34 15 8
0 24 8 35 16 19 16 19 16 -5 9 -14 -3 -35 -11 -47 -17 -26 -13 -73 -3 -73 16
0 7 12 25 26 40 32 31 11 36 -22 5 l-23 -21 -47 23 c-27 12 -43 24 -36 27 7 2
12 13 12 24 0 14 -5 18 -15 14 -8 -3 -22 -9 -31 -13 -14 -5 -16 -2 -10 20 8
32 -8 36 -24 7 -15 -28 -39 -25 -51 8 -6 15 -15 35 -21 45 -6 12 -5 23 2 32
16 20 -8 31 -27 12 -12 -12 -32 -14 -92 -10 -68 5 -78 3 -95 -16 -25 -27 -42
-27 -50 2 -3 12 -15 32 -26 45 -11 12 -18 22 -14 22 3 0 1 7 -6 15 -10 12 -9
15 6 15 18 1 18 1 2 14 -10 7 -18 18 -18 25 0 14 45 14 71 0 15 -7 24 -7 35 1
11 10 20 9 40 -5 38 -24 54 -5 31 35 -18 29 -18 30 3 30 11 0 29 5 39 12 23
14 51 4 51 -18 0 -13 -7 -15 -36 -9 -24 4 -34 3 -29 -4 3 -6 12 -11 20 -11 8
0 18 -7 23 -16 7 -13 13 -14 29 -6 11 6 24 7 29 3 5 -5 41 -18 79 -29 39 -10
78 -23 89 -27 14 -6 18 -5 14 6 -2 8 -15 15 -29 17 -13 2 -48 10 -77 19 -56
16 -65 36 -19 41 19 2 27 9 27 23 0 11 11 24 25 31 14 6 25 19 25 28 0 9 5 31
11 49 8 23 17 31 35 31 28 0 30 7 7 32 -9 10 -18 26 -19 36 -1 9 -5 25 -9 34
-5 14 -2 16 13 13 28 -5 56 -21 72 -39 7 -9 19 -16 27 -16 13 0 13 3 3 15 -7
8 -18 15 -25 15 -7 0 -19 10 -28 23 -12 19 -12 26 -2 40 14 20 20 17 117 -46
65 -42 91 -50 35 -10 -20 14 -37 30 -37 35 0 4 -16 16 -35 25 -40 19 -54 43
-25 43 35 0 126 -28 191 -58 35 -16 84 -36 109 -43 25 -7 50 -17 57 -22 7 -5
17 -6 23 -2 6 4 22 -1 35 -9 24 -16 25 -16 25 8 0 26 -17 37 -68 41 -18 2 -53
13 -78 24 -24 12 -50 21 -58 21 -8 0 -35 20 -62 45 -26 25 -57 45 -68 45 -35
0 -50 14 -31 30 12 10 13 16 4 27 -7 8 -18 12 -25 9 -7 -3 -16 -1 -19 4 -8 13
6 40 21 40 8 0 13 6 11 12 -1 7 13 15 33 19 55 9 80 20 80 35 0 8 9 14 20 14
11 0 29 9 40 20 22 22 65 27 76 9 3 -6 16 -8 29 -5 14 4 32 -1 47 -14 27 -21
38 -17 38 11 0 23 -37 49 -72 49 -15 0 -30 4 -33 10 -4 6 5 10 19 10 14 0 26
5 26 10 0 6 16 20 35 31 19 12 35 27 35 35 0 8 11 19 25 24 27 10 31 20 15 36
-8 8 -6 20 6 40 16 28 16 33 -1 77 -10 26 -22 47 -26 47 -5 0 -9 11 -9 24 0
16 -7 27 -20 31 -11 3 -20 12 -20 19 0 19 -25 37 -55 41 -15 1 -33 13 -42 25
-14 20 -17 21 -25 6 -10 -18 -34 -21 -44 -5 -8 13 14 29 32 22 6 -2 15 0 19 6
3 6 23 11 43 12 31 1 33 2 13 8 -40 11 -38 31 2 24 31 -5 36 -3 39 17 2 17 13
26 43 34 30 9 41 17 43 34 3 16 12 25 33 29 36 7 43 17 29 43 -9 16 -6 26 12
50 21 28 21 34 10 88 -7 31 -19 62 -28 69 -11 8 -15 21 -12 38 4 20 0 30 -18
42 -13 8 -24 22 -24 30 0 19 -39 52 -62 53 -27 0 -48 11 -48 25 0 7 -7 18 -15
25 -11 10 -18 9 -30 -4 -21 -21 -24 -20 -51 5 l-23 21 -26 -20 c-24 -19 -59
-20 -71 -1 -3 5 -13 9 -24 9 -13 0 -17 -5 -13 -20 6 -24 -21 -28 -43 -6 -7 8
-19 17 -26 19 -10 4 -8 10 5 20 23 19 14 40 -35 74 -30 20 -37 29 -25 31 22 4
12 22 -12 22 -9 0 -27 13 -39 29 l-21 29 22 6 c12 3 37 6 55 6 23 0 32 4 29
13 -2 6 -13 11 -24 9 -14 -2 -23 4 -27 20 -5 14 -9 18 -13 11 -8 -20 -51 -15
-63 6 -14 28 -14 29 21 36 38 9 59 53 34 72 -9 6 -23 9 -31 6 -8 -3 -14 0 -14
7 0 10 14 11 55 6 30 -3 80 -9 111 -13 46 -5 56 -3 52 8 -3 9 -22 15 -54 16
-81 4 -134 14 -134 24 0 5 9 9 19 9 11 0 22 4 25 9 9 13 -33 21 -60 11 -15 -6
-24 -6 -24 0 0 6 -10 20 -21 31 -25 25 -18 32 46 51 22 6 56 24 76 40 20 15
44 28 53 28 8 0 38 9 66 20 28 11 73 20 99 20 49 0 84 20 61 35 -12 8 -95 -9
-153 -31 -20 -8 -67 -14 -103 -14 -59 0 -68 -3 -92 -29 -28 -31 -122 -77 -122
-60 0 5 7 25 14 44 12 27 21 35 40 35 16 0 26 6 26 14 0 11 -14 13 -63 9 -68
-6 -80 1 -92 48 -5 22 0 31 34 58 23 18 41 41 41 52 0 11 16 29 38 43 20 13
46 33 56 45 11 12 58 47 105 78 47 31 91 61 96 68 10 11 104 59 139 69 14 5
17 13 13 34 -5 24 1 34 44 71 28 24 48 46 44 49 -3 3 -29 -18 -58 -46 -29 -29
-60 -52 -70 -52 -10 0 -23 -12 -29 -26 -7 -14 -32 -36 -57 -49 -26 -13 -57
-35 -71 -50 -14 -15 -56 -45 -95 -68 -38 -22 -81 -50 -95 -62 -35 -31 -113
-75 -133 -75 -23 0 -21 23 3 45 12 10 30 34 41 52 12 18 42 47 67 65 76 51
142 109 142 124 0 23 -23 16 -61 -19 -20 -17 -60 -52 -90 -77 -30 -24 -58 -51
-63 -60 -5 -8 -29 -34 -54 -57 -43 -42 -72 -54 -72 -32 0 17 51 79 66 79 8 0
14 5 14 11 0 7 32 44 71 84 38 40 77 82 85 94 18 25 60 28 92 5 23 -16 52 -13
52 5 0 5 -16 15 -35 21 -26 9 -34 16 -31 28 3 10 1 24 -4 32 -8 12 -13 11 -39
-8 l-30 -22 -88 25 c-152 44 -223 77 -223 104 0 12 101 62 126 62 104 -1 268
-15 304 -26 66 -21 177 -45 206 -45 16 0 24 5 22 12 -3 7 -58 22 -129 35 -68
13 -155 30 -194 39 -38 9 -91 18 -117 21 -27 3 -48 8 -48 12 0 13 225 109 266
114 24 3 59 17 84 36 27 19 55 31 75 31 17 0 54 7 81 15 27 8 86 15 132 15 74
0 83 2 80 18 -3 15 -14 17 -78 14 -40 -1 -100 -9 -133 -18 -40 -10 -77 -13
-114 -8 -92 11 -105 9 -132 -24 -18 -22 -44 -36 -86 -48 -33 -9 -85 -32 -116
-50 -54 -32 -98 -41 -133 -28 -9 3 -13 11 -9 18 3 6 1 6 -8 -1 -14 -14 -81
-18 -92 -6 -4 4 5 20 20 37 l28 30 -41 -32 c-32 -24 -52 -32 -83 -32 -23 0
-41 4 -41 10 0 15 73 60 98 60 13 0 43 12 68 26 38 23 43 24 37 7 -6 -17 -6
-17 14 0 11 9 24 17 28 17 5 0 -6 -13 -25 -30 -19 -16 -30 -29 -24 -30 6 0 27
16 47 35 31 31 43 35 89 36 78 2 181 22 186 37 3 10 -10 12 -59 8 -35 -3 -76
-8 -92 -12 -23 -5 -26 -4 -21 10 6 15 2 14 -27 -3 -35 -20 -61 -25 -113 -23
-25 2 -27 4 -15 20 7 9 2 7 -12 -5 -14 -13 -35 -23 -47 -23 -12 0 -40 -11 -62
-25 -38 -24 -60 -31 -60 -19 0 6 2 8 105 99 128 112 141 122 183 129 27 4 57
20 89 48 26 22 63 48 82 56 20 8 54 30 77 51 23 20 99 65 168 101 69 36 126
68 126 71 0 4 19 13 43 22 23 8 56 20 72 26 17 6 43 13 59 16 26 5 28 8 22 40
-6 30 -3 38 26 64 18 17 28 31 22 31 -5 0 -25 -16 -44 -35 -22 -23 -43 -35
-61 -35 -19 0 -30 -6 -34 -21 -5 -13 -30 -32 -71 -50 -34 -16 -78 -42 -97 -59
-19 -16 -81 -50 -138 -76 -57 -26 -113 -54 -124 -64 -29 -25 -119 -68 -160
-76 -51 -9 -46 19 13 75 27 25 53 53 58 62 5 9 45 37 89 63 98 58 115 68 133
81 29 21 52 45 52 55 0 17 -46 11 -71 -9 -13 -10 -62 -44 -109 -77 -47 -32
-110 -83 -140 -114 -66 -66 -124 -100 -141 -83 -9 9 -3 22 24 54 20 23 49 49
64 59 15 9 72 57 126 106 54 49 124 105 155 125 43 27 58 43 60 62 3 22 -1 27
-20 27 -15 0 -50 -28 -108 -87 -126 -129 -190 -187 -237 -216 -23 -15 -69 -51
-103 -82 -35 -30 -66 -55 -71 -55 -5 0 -20 -17 -34 -37 -19 -28 -32 -38 -52
-38 -19 0 -34 -10 -52 -36 -14 -21 -47 -54 -73 -75 -26 -22 -47 -44 -47 -50
-1 -6 -10 -19 -21 -29 -10 -9 -18 -22 -17 -28 2 -11 -123 -80 -131 -72 -7 7 8
40 31 65 30 34 107 147 107 159 0 6 9 25 19 43 30 52 47 116 33 130 -16 16
-42 -8 -42 -38 0 -13 -6 -38 -14 -56 -65 -151 -86 -186 -167 -277 -22 -25 -50
-61 -62 -80 -16 -25 -38 -41 -79 -57 -31 -12 -59 -19 -62 -16 -3 3 -15 -7 -27
-21 -11 -15 -28 -27 -36 -27 -13 0 -11 6 8 27 19 21 20 25 6 20 -14 -5 -17 -3
-13 11 5 14 0 17 -27 17 -28 0 -32 3 -29 24 2 15 0 21 -7 17 -6 -4 -11 -13
-11 -21 0 -13 -88 -75 -106 -75 -5 0 -26 -9 -47 -20 -34 -18 -37 -19 -37 -3 0
9 15 32 33 51 l32 34 -55 -22 c-126 -51 -147 -34 -61 49 34 31 61 63 61 69 0
18 -11 15 -39 -12 -36 -34 -139 -78 -148 -63 -3 6 2 16 12 21 10 6 30 21 43
34 13 13 26 21 29 18 7 -7 51 59 59 88 3 13 1 34 -6 45 -9 18 -5 32 30 89 22
38 40 74 40 80 0 23 -18 12 -30 -18 -13 -31 -29 -40 -32 -17 -1 6 -3 35 -4 62
-1 28 -5 64 -9 81 -12 52 28 142 113 254 10 14 25 36 32 50 7 14 37 62 66 106
30 45 54 86 54 93 0 6 4 11 8 11 4 0 15 13 24 28 10 16 46 61 83 101 64 72 79
101 51 101 -20 0 -161 -161 -219 -250 -20 -30 -63 -84 -96 -119 -34 -36 -61
-68 -61 -72 0 -17 -62 -99 -91 -121 -17 -13 -41 -34 -52 -47 -66 -73 -97 -102
-107 -96 -16 10 -12 27 20 78 19 30 37 47 50 47 26 0 39 27 38 80 l0 44 -26
-49 c-34 -68 -82 -129 -94 -117 -5 5 -1 30 12 62 11 29 19 55 16 57 -5 5 -46
-56 -46 -67 0 -3 -12 -13 -27 -22 -16 -10 -41 -29 -57 -43 -23 -20 -36 -24
-58 -20 -23 6 -34 1 -57 -24 -28 -30 -31 -31 -98 -26 -58 3 -68 7 -66 22 6 59
33 263 38 288 9 45 -11 12 -31 -52 -18 -56 -23 -60 -42 -41 -18 18 -14 59 8
83 11 12 22 35 24 51 4 27 15 62 35 109 5 11 13 42 20 68 9 40 9 53 -5 80 -9
18 -18 33 -19 35 -1 2 -19 -5 -39 -15 -29 -14 -44 -33 -71 -89 -19 -39 -35
-82 -35 -96 0 -14 -9 -33 -19 -42 -11 -10 -25 -30 -31 -46 -12 -29 -41 -47
-59 -36 -5 4 -12 -20 -16 -51 -9 -76 -11 -83 -33 -83 -23 0 -42 19 -42 42 0
22 -13 23 -30 3 -19 -22 -51 -18 -98 12 -40 26 -42 30 -43 78 0 27 -2 98 -3
157 -1 59 -5 110 -9 114 -4 5 -7 -42 -6 -104 1 -107 -7 -142 -31 -142 -8 0
-20 56 -21 97 -1 13 -5 20 -11 17 -5 -3 -6 -24 -3 -47 6 -45 -5 -99 -21 -104
-5 -2 -19 3 -29 11 -20 14 -20 15 1 58 17 36 18 47 8 66 -17 35 -29 43 -47 36
-21 -8 -22 -52 -2 -78 21 -28 19 -70 -5 -91 -11 -10 -20 -14 -20 -9 0 5 -9 15
-19 21 -16 10 -26 8 -57 -13 -29 -20 -39 -23 -45 -12 -13 20 -11 24 16 36 35
16 49 56 31 90 -10 19 -11 32 -4 48 8 18 6 32 -10 63 -18 33 -19 44 -10 69 10
25 9 35 -6 57 -18 27 -22 29 -68 39 -24 5 -28 11 -28 40 0 42 -44 88 -107 112
-27 11 -43 23 -43 33 0 35 -25 54 -76 57 -27 1 -67 7 -89 13 -22 6 -56 11 -76
11 -20 0 -42 7 -49 15 -17 21 -62 19 -141 -7 l-68 -22 -25 27 c-33 36 -70 35
-129 -3z m69 -56 c-17 -44 -18 -64 -3 -64 8 0 17 5 19 12 2 6 24 13 49 14 24
2 71 12 103 24 72 24 69 24 56 1 -13 -26 1 -34 35 -21 29 11 114 13 139 4 13
-5 14 -9 5 -21 -23 -27 5 -37 57 -19 26 9 49 16 50 16 2 0 4 -17 6 -37 3 -38
3 -38 43 -35 27 2 51 -4 75 -19 l34 -21 -27 -22 c-15 -12 -27 -26 -27 -32 0
-10 94 -57 137 -69 l22 -6 -21 -35 -21 -36 28 -22 c25 -20 26 -24 14 -44 -11
-18 -11 -26 4 -57 9 -20 17 -38 17 -41 0 -3 -19 -4 -42 -2 -40 3 -43 1 -40
-21 2 -18 -2 -22 -14 -17 -11 4 -18 -1 -21 -14 -3 -13 -14 -20 -29 -20 -13 0
-29 -9 -36 -20 -8 -12 -24 -20 -40 -20 -21 0 -28 -5 -28 -19 0 -14 -7 -18 -29
-17 -36 2 -57 20 -73 62 -14 41 -27 42 -66 9 l-30 -25 -11 31 c-12 34 -12 34
-81 -20 -78 -61 -74 -59 -68 -28 3 15 1 30 -4 33 -4 3 -36 -16 -71 -41 l-62
-47 -5 28 c-7 41 -24 39 -54 -6 -14 -22 -29 -40 -31 -40 -14 0 -81 32 -97 46
-20 19 -38 11 -38 -17 0 -23 -13 -25 -30 -4 -19 22 -28 18 -35 -15 -4 -16 -10
-32 -15 -35 -15 -9 -44 120 -45 200 0 68 3 85 24 113 13 18 22 34 20 36 -2 2
-13 8 -23 13 -18 10 -16 13 23 37 47 30 46 39 -4 56 -44 15 -44 25 0 40 38 13
40 16 25 56 -8 19 -8 30 0 38 7 7 10 6 10 -2 0 -20 32 -13 37 8 6 24 19 26 27
5 10 -27 25 -16 37 27 7 29 27 59 59 90 47 48 78 63 66 32z m746 -639 c32
-120 28 -282 -8 -345 -10 -15 -13 -17 -8 -5 19 58 25 106 19 165 -10 102 -47
160 -102 160 -16 0 -21 4 -16 16 4 12 14 14 35 10 24 -5 31 -2 35 15 8 29 35
19 45 -16z m-432 -7 c0 -13 4 -30 10 -38 7 -12 16 -8 46 23 l37 37 21 -34 c12
-19 45 -55 74 -81 40 -36 52 -53 52 -76 0 -19 5 -29 15 -29 10 0 15 10 15 28
0 40 18 98 35 112 22 18 58 5 77 -28 24 -40 34 -158 18 -208 -19 -61 -39 -87
-55 -74 -27 22 -28 -12 -1 -36 21 -20 26 -34 26 -72 0 -55 -31 -184 -59 -247
-63 -142 -200 -265 -295 -265 -65 0 -284 189 -349 300 -25 45 -82 182 -171
416 -41 108 -45 125 -35 153 10 29 13 31 28 17 24 -22 36 -20 47 9 l9 25 58
-29 58 -28 15 29 c14 28 16 29 29 12 12 -17 16 -16 68 18 l55 37 6 -25 c4 -13
10 -24 14 -24 4 0 36 22 72 49 36 27 68 50 73 50 4 1 7 -9 7 -21z m275 -37 c3
-5 1 -12 -5 -16 -5 -3 -10 1 -10 9 0 18 6 21 15 7z m-36 -40 c7 -5 12 -14 9
-21 -2 -7 -10 -4 -22 9 -19 21 -12 28 13 12z m-1613 -263 c24 -17 42 -33 40
-36 -7 -7 -73 28 -92 49 -27 30 2 23 52 -13z m861 -98 c50 -132 49 -152 -3
-229 -2 -2 -32 13 -68 33 -35 20 -71 36 -80 36 -18 0 -23 49 -7 66 5 5 16 29
25 54 14 40 14 46 0 53 -13 7 -12 12 7 28 13 11 29 17 37 14 10 -4 12 0 8 11
-7 19 23 59 34 47 4 -5 25 -55 47 -113z m-1317 45 c0 -8 -4 -15 -9 -15 -13 0
-22 16 -14 24 11 11 23 6 23 -9z m573 1 c15 -4 25 -11 22 -16 -3 -5 0 -18 7
-29 9 -15 9 -25 0 -47 l-13 -27 -24 23 c-15 14 -25 35 -25 51 0 15 -4 31 -10
34 -14 9 -12 25 3 21 6 -3 25 -7 40 -10z m1971 -1 c32 -32 41 -122 40 -405 -1
-399 -35 -627 -186 -1254 l-40 -168 -76 -79 c-41 -43 -77 -77 -79 -75 -2 2 10
39 28 82 153 386 202 630 249 1264 6 80 18 206 26 280 22 190 9 276 -50 330
-24 22 -25 25 -9 31 31 13 81 10 97 -6z m-2042 -96 c15 -11 28 -25 28 -30 0
-16 -66 -10 -83 9 -16 18 -18 67 -2 92 7 12 11 8 19 -18 5 -18 22 -42 38 -53z
m2346 52 c22 -12 21 -13 -38 -42 -89 -45 -160 -145 -160 -225 0 -41 17 -45 26
-6 15 71 38 113 88 160 30 28 67 54 82 58 16 4 34 11 41 16 20 16 114 -41 192
-116 73 -71 241 -307 297 -419 15 -29 35 -64 45 -79 25 -34 25 -35 -15 -42
-92 -17 -241 -158 -359 -339 l-71 -108 -30 48 c-103 165 -237 534 -240 660 -1
66 -19 87 -29 36 -19 -101 120 -509 241 -706 23 -37 42 -69 42 -72 0 -2 12
-21 26 -42 14 -21 39 -64 55 -96 28 -54 29 -59 14 -86 -10 -20 -79 -73 -207
-159 -106 -71 -240 -162 -298 -201 -94 -64 -105 -69 -112 -52 -4 11 -16 22
-28 26 -16 5 -20 12 -16 28 3 12 13 55 23 96 l17 74 81 -7 c44 -4 106 -10 139
-13 48 -5 58 -4 54 8 -3 10 -39 18 -124 27 -129 14 -148 18 -140 30 9 15 95
419 120 567 35 206 45 317 53 550 5 184 -6 384 -24 432 -5 14 7 15 113 11 68
-2 129 -10 142 -17z m-399 -17 c39 -49 45 -123 27 -294 -9 -85 -21 -220 -27
-300 -27 -386 -73 -710 -124 -887 l-16 -53 -67 0 c-119 0 -311 -55 -284 -82 8
-8 24 -5 59 9 26 12 72 26 101 32 53 11 182 15 182 6 0 -4 -88 -240 -119 -318
l-11 -28 -43 26 c-28 16 -59 25 -85 25 -46 0 -166 -40 -228 -76 l-42 -23 -6
52 c-4 29 -27 113 -51 187 -24 74 -59 196 -79 270 -29 108 -54 171 -125 315
-157 318 -169 355 -187 578 -4 53 -10 77 -17 74 -15 -5 -10 -155 8 -254 16
-83 106 -299 176 -423 27 -47 51 -99 55 -116 7 -38 -43 -187 -61 -181 -143 55
-281 81 -401 75 l-93 -5 5 96 c6 97 17 137 103 370 31 82 31 86 29 245 -3 152
-2 164 21 209 30 60 104 128 213 195 47 28 88 52 91 52 3 0 17 -21 33 -47 15
-26 58 -78 96 -116 59 -59 72 -78 84 -126 47 -180 171 -334 356 -442 40 -24
83 -52 96 -63 14 -13 26 -16 32 -10 5 5 33 75 61 154 139 391 208 648 212 780
2 49 -2 62 -21 83 -17 18 -20 26 -10 30 26 10 37 7 57 -19z m-114 2 c18 -8 41
-26 51 -41 16 -25 16 -32 0 -131 -21 -130 -75 -321 -160 -569 -96 -279 -85
-256 -115 -235 -14 9 -52 32 -84 51 -81 47 -158 113 -214 184 -47 59 -105 170
-119 230 -6 25 -5 28 7 18 8 -6 21 -29 28 -50 31 -86 119 -201 219 -286 52
-44 150 -107 166 -107 10 0 24 42 76 239 27 102 67 233 89 291 22 58 50 158
64 222 l25 117 -54 31 c-30 16 -54 35 -54 40 0 14 35 12 75 -4z m-1189 -38
c-9 -12 -16 -39 -16 -60 0 -21 -2 -38 -4 -38 -15 0 -36 14 -36 23 0 17 64 119
68 108 2 -6 -4 -21 -12 -33z m-436 22 c0 -5 -4 -10 -10 -10 -5 0 -10 5 -10 10
0 6 5 10 10 10 6 0 10 -4 10 -10z m111 -32 c49 -17 58 -24 63 -50 4 -18 1 -37
-6 -45 -10 -12 -16 -10 -42 17 -17 17 -45 40 -63 50 -17 10 -37 29 -43 40 -13
25 -12 25 91 -12z m1509 -46 c0 -38 -48 -221 -82 -312 -22 -58 -59 -179 -83
-271 -24 -91 -49 -177 -54 -193 l-11 -27 -42 23 c-61 33 -230 203 -267 268
-38 68 -38 74 -1 55 108 -56 282 65 374 259 26 55 66 207 66 251 l0 25 50 -32
c27 -18 50 -39 50 -46z m-1636 42 c9 -3 16 -15 16 -26 0 -28 -34 -19 -38 10
-4 24 -2 25 22 16z m2991 -13 c-3 -6 -11 -11 -17 -11 -6 0 -6 6 2 15 14 17 26
13 15 -4z m-2945 -39 c0 -15 5 -34 10 -42 8 -12 10 -11 10 8 0 12 4 22 8 22
14 0 32 -23 32 -40 0 -12 -8 -15 -34 -12 -28 3 -35 9 -40 34 -9 45 -7 70 4 63
6 -3 10 -18 10 -33z m-192 4 c17 -10 20 -45 6 -57 -15 -13 -71 -8 -116 10 -25
9 -27 13 -17 35 11 22 17 24 64 22 29 -2 57 -6 63 -10z m553 -86 c20 -11 25
-35 10 -45 -5 -3 -16 8 -24 25 -17 33 -15 35 14 20z m259 -14 c0 -2 -7 -7 -16
-10 -8 -3 -12 -2 -9 4 6 10 25 14 25 6z m-169 -42 c6 -8 18 -14 25 -14 22 0
17 -19 -12 -45 -22 -20 -29 -22 -50 -13 -19 9 -24 17 -20 32 3 12 6 31 6 43 0
16 5 20 20 16 10 -3 25 -11 31 -19z m-71 -19 c0 -8 -4 -15 -10 -15 -5 0 -10 7
-10 15 0 8 5 15 10 15 6 0 10 -7 10 -15z m3276 -54 c-17 -32 -54 -71 -68 -71
-5 0 -6 5 -2 11 17 27 -17 0 -56 -46 -42 -49 -86 -79 -78 -52 3 6 14 17 25 22
27 14 53 41 53 57 1 23 35 59 85 88 27 16 51 27 53 25 2 -2 -4 -17 -12 -34z
m264 -116 c-7 -8 -8 -15 -2 -15 5 0 15 7 22 14 8 11 31 14 86 13 41 -1 74 -5
74 -9 0 -4 7 -4 17 -1 11 4 14 3 9 -5 -4 -7 -39 -21 -79 -33 -40 -12 -78 -26
-85 -32 -7 -5 -15 -8 -18 -5 -2 3 11 19 31 36 54 48 42 49 -15 1 -27 -23 -50
-48 -50 -55 0 -7 -9 -18 -19 -24 -24 -12 -64 -13 -57 -1 3 4 -11 7 -32 5 -21
-2 -44 1 -52 7 -13 8 -11 13 12 32 50 42 83 62 118 73 49 16 54 16 40 -1z
m-525 -90 c-16 -13 -31 -22 -34 -20 -5 6 41 44 54 44 6 0 -3 -11 -20 -24z
m-295 -40 c-16 -19 -50 -19 -50 -1 0 16 53 38 58 24 2 -5 -2 -15 -8 -23z m695
-19 c18 -13 18 -14 -3 -25 -18 -10 -22 -9 -22 4 0 8 -9 15 -19 15 -11 0 -23 5
-26 10 -9 15 48 12 70 -4z m-4919 -14 c1 -7 0 -8 -2 -3 -3 6 -12 7 -20 4 -8
-3 -14 0 -14 7 0 15 33 9 36 -8z m4852 -24 c-3 -7 -17 -15 -33 -16 -25 -3 -27
-2 -16 12 16 19 55 22 49 4z m322 -27 c0 -5 -9 -13 -20 -16 -11 -3 -44 -27
-72 -51 -62 -53 -75 -41 -33 31 26 44 28 45 76 45 27 0 49 -4 49 -9z m52 -15
c18 -8 72 -24 118 -36 46 -12 88 -24 92 -26 16 -10 -136 -194 -161 -194 -24 0
-101 43 -101 56 0 8 -7 14 -15 14 -21 0 -75 28 -102 53 l-22 20 32 30 c24 23
109 90 123 96 1 1 17 -5 36 -13z m-5006 -37 c12 -20 -12 -30 -39 -16 -15 8
-24 17 -20 20 10 11 51 8 59 -4z m3568 -51 c3 -17 34 -81 68 -142 34 -60 57
-111 51 -113 -5 -2 -18 -10 -28 -17 -25 -18 -13 -66 16 -66 34 0 16 -21 -33
-41 l-47 -18 2 42 c2 40 0 42 -28 45 -42 4 -97 -32 -93 -61 2 -12 13 -26 26
-32 30 -13 24 -24 -21 -43 -43 -17 -53 -12 -38 16 13 25 5 49 -19 57 -23 7
-97 -22 -104 -42 -8 -19 11 -53 29 -53 35 0 21 -22 -30 -44 -30 -14 -58 -32
-62 -41 -4 -12 -18 4 -49 57 -24 40 -43 79 -44 86 0 22 143 232 206 301 51 56
162 141 184 141 4 0 10 -14 14 -32z m1146 -38 c0 -5 -5 -10 -11 -10 -5 0 -7 5
-4 10 3 6 8 10 11 10 2 0 4 -4 4 -10z m120 -41 c52 -27 58 -39 21 -39 -20 0
-34 7 -41 20 -6 11 -18 20 -26 20 -8 0 -12 5 -9 10 8 13 8 13 55 -11z m-186
-4 c-4 -8 -10 -15 -15 -15 -5 0 -9 -7 -9 -15 0 -9 -9 -15 -22 -15 -20 0 -20 2
8 30 32 32 47 38 38 15z m176 -61 c14 -36 13 -44 -10 -44 -12 0 -22 9 -26 24
-11 47 20 64 36 20z m140 -9 c14 -16 10 -18 -14 -9 -9 3 -16 10 -16 15 0 14
16 11 30 -6z m-4780 -70 c0 -10 -10 -15 -31 -15 -27 0 -30 2 -19 15 7 8 21 15
31 15 11 0 19 -7 19 -15z m3560 -55 c0 -12 -33 -30 -54 -30 -25 0 -19 15 12
27 36 14 42 15 42 3z m260 -141 l60 -119 -23 -14 c-12 -8 -130 -79 -263 -159
l-240 -145 -119 -22 c-64 -12 -121 -18 -125 -13 -4 4 -22 51 -40 104 l-32 95
34 68 34 68 320 132 c175 73 323 131 327 129 4 -3 34 -58 67 -124z m-430 73
c0 -9 -44 -32 -60 -32 -19 0 -10 21 13 30 29 11 47 12 47 2z m-155 -62 c7 -12
-41 -32 -64 -27 -11 2 -7 8 14 20 36 19 42 20 50 7z m-10 -60 c3 -5 1 -10 -4
-10 -6 0 -11 5 -11 10 0 6 2 10 4 10 3 0 8 -4 11 -10z m655 -114 c0 -9 -113
-77 -118 -70 -4 4 -2 8 3 11 6 2 30 17 55 33 42 27 60 35 60 26z m-2545 -120
c50 -15 94 -31 98 -35 12 -12 -24 -86 -112 -229 -46 -73 -86 -145 -90 -160 -6
-18 -2 -52 10 -97 28 -106 25 -203 -12 -342 -46 -173 -58 -233 -59 -280 l0
-42 -55 -16 c-30 -9 -57 -20 -60 -25 -11 -17 14 -19 61 -5 68 21 100 19 169
-10 33 -13 78 -25 100 -25 l40 -1 -33 -29 c-28 -26 -40 -30 -93 -30 -54 0 -64
-3 -88 -29 -24 -25 -29 -27 -45 -15 -19 13 -36 11 -36 -5 0 -5 18 -21 39 -36
l40 -27 53 26 c29 14 85 44 123 66 39 22 80 40 93 40 33 0 28 -30 -10 -67 -56
-52 -206 -162 -258 -188 -50 -25 -65 -45 -33 -45 21 0 92 42 162 94 149 113
154 114 101 10 -43 -84 -47 -88 -145 -139 -74 -39 -96 -46 -136 -44 -27 2 -52
-1 -56 -5 -13 -12 20 -26 64 -26 60 0 236 91 264 137 25 41 44 44 34 6 -10
-42 -82 -110 -152 -145 -115 -56 -245 -37 -285 43 -10 19 -35 50 -57 69 -67
59 -74 102 -41 272 l20 103 -30 84 c-39 108 -59 224 -67 381 -7 145 2 183 53
239 18 20 55 48 83 61 50 23 60 33 43 44 -9 5 -94 -34 -128 -59 -21 -15 -21
-14 -27 40 -7 74 5 153 50 322 44 165 27 153 203 148 90 -2 135 -8 205 -29z
m2419 -5 c-6 -6 -24 19 -24 34 1 6 7 1 15 -9 8 -11 12 -22 9 -25z m-54 11 c0
-11 -87 -61 -94 -54 -3 3 13 18 36 34 44 29 58 34 58 20z m-690 -26 c-40 -38
-885 -607 -898 -604 -8 2 190 141 439 310 409 277 504 337 459 294z m800 -5
c0 -12 -40 -41 -57 -41 -21 0 -15 14 15 32 31 20 42 22 42 9z m-4566 -27 c4
-11 1 -14 -11 -12 -9 2 -18 9 -21 16 -6 18 25 15 32 -4z m3781 7 c-9 -8 -95
-67 -683 -470 -107 -73 -197 -130 -200 -127 -7 8 -47 -21 453 323 225 155 417
282 425 282 8 1 10 -2 5 -8z m-1410 -69 l13 -50 -42 -74 c-23 -40 -54 -91 -68
-114 -42 -65 -107 -201 -145 -298 -34 -91 -45 -106 -74 -106 -13 0 -14 10 -8
63 10 92 91 273 207 462 30 50 63 110 74 134 10 24 21 41 24 38 3 -3 11 -28
19 -55z m1420 38 c-3 -5 -199 -141 -435 -302 -236 -160 -427 -294 -425 -296 2
-2 138 87 302 199 164 112 356 243 427 291 116 79 176 112 136 74 -16 -14
-868 -596 -874 -596 -1 0 -3 13 -4 28 0 25 13 37 121 110 67 45 262 178 432
296 273 188 340 229 320 196z m659 -42 c8 -35 21 -106 27 -158 6 -52 17 -115
25 -140 26 -86 15 -127 -53 -191 -51 -49 -111 -78 -280 -133 -218 -71 -248
-76 -554 -86 -152 -6 -310 -16 -352 -23 l-76 -13 -16 45 c-8 24 -14 45 -12 46
76 56 723 488 743 496 40 16 263 17 290 2 30 -17 104 27 104 64 0 16 -7 27
-20 30 -28 7 -25 15 14 40 l34 22 -2 -31 c-2 -45 24 -58 70 -33 19 10 40 27
45 37 13 25 -6 58 -34 58 -21 1 -22 1 -3 15 11 8 23 15 27 15 4 0 14 -28 23
-62z m-100 36 c9 -24 2 -26 -12 -4 -7 11 -8 20 -3 20 5 0 12 -7 15 -16z m-44
-3 c0 -15 -79 -61 -86 -50 -3 6 -4 11 -3 13 23 16 76 46 82 46 4 0 7 -4 7 -9z
m-4260 -15 c0 -3 -4 -8 -10 -11 -5 -3 -10 -1 -10 4 0 6 5 11 10 11 6 0 10 -2
10 -4z m3769 -39 c-22 -20 -893 -607 -900 -607 -5 0 -9 3 -9 8 0 4 199 142
441 307 242 165 443 304 446 308 3 5 10 4 16 -2 6 -6 9 -12 6 -14z m601 15 c0
-12 -60 -45 -68 -37 -4 4 4 15 17 26 24 19 51 25 51 11z m-206 -61 c-6 -6 -24
19 -24 34 1 6 7 1 15 -9 8 -11 12 -22 9 -25z m-386 19 c-4 -12 -864 -600 -878
-600 -5 0 -10 3 -10 8 0 8 871 602 883 602 5 0 7 -4 5 -10z m336 -9 c13 -21
-52 -44 -158 -57 -60 -8 -112 -11 -115 -8 -11 11 23 21 127 39 59 10 111 22
117 26 12 11 22 11 29 0z m-4073 -12 c14 -7 19 -19 17 -45 -2 -36 -18 -48 -18
-14 0 12 -12 32 -26 45 -22 20 -23 25 -10 25 10 0 26 -5 37 -11z m3749 -16
c-1 -12 -130 -102 -402 -278 -468 -304 -468 -304 -448 -282 18 18 832 576 843
576 4 1 7 -7 7 -16z m430 -5 c0 -16 -58 -50 -65 -38 -3 4 7 18 22 29 32 24 43
26 43 9z m-95 -18 c-3 -5 -11 -10 -16 -10 -6 0 -7 5 -4 10 3 6 11 10 16 10 6
0 7 -4 4 -10z m1675 -16 c0 -2 -7 -4 -15 -4 -8 0 -15 4 -15 10 0 5 7 7 15 4 8
-4 15 -8 15 -10z m-1990 -18 c-8 -8 -123 -87 -255 -176 -132 -90 -288 -196
-347 -237 -67 -46 -112 -71 -122 -67 -9 3 -16 9 -16 13 0 10 723 479 740 480
13 1 13 -1 0 -13z m-712 -108 c-2 -16 -32 -43 -97 -87 -51 -35 -92 -59 -90
-53 2 6 37 44 77 86 75 78 117 99 110 54z m-3289 -94 c17 -14 31 -32 31 -39 0
-7 6 -15 13 -18 6 -2 9 -8 4 -13 -4 -4 -23 -2 -41 4 -18 7 -41 10 -50 6 -16
-6 -23 11 -8 20 5 3 7 19 4 36 -5 37 7 38 47 4z m2971 -8 c0 -8 -18 -38 -40
-67 -38 -51 -45 -65 -52 -113 -2 -11 -82 -71 -213 -160 -204 -138 -210 -142
-207 -173 3 -30 -3 -35 -135 -126 l-139 -95 -42 11 c-40 11 -42 13 -42 49 0
20 5 61 11 90 13 63 67 260 73 265 7 7 130 23 182 23 65 0 119 34 197 123 70
80 131 125 217 161 110 45 190 50 190 12z m70 -21 c23 -12 28 -20 22 -35 -7
-18 -127 -110 -144 -110 -17 0 -6 27 28 70 20 25 40 55 45 68 10 26 12 26 49
7z m3190 -46 c25 -9 34 -9 40 1 4 7 13 9 19 5 9 -5 9 -10 1 -21 -8 -8 -9 -28
-5 -54 5 -30 3 -40 -7 -40 -25 0 -88 50 -94 75 -3 14 -13 25 -21 25 -8 0 -11
5 -8 10 8 13 34 13 75 -1z m-6170 -19 c0 -5 -7 -10 -15 -10 -8 0 -15 5 -15 10
0 6 7 10 15 10 8 0 15 -4 15 -10z m-76 -9 c3 -5 -5 -11 -19 -13 -26 -5 -35 6
-12 15 19 8 25 8 31 -2z m3031 -94 c18 -14 18 -38 0 -79 -5 -13 3 -22 34 -37
51 -26 91 -26 141 -1 53 27 65 25 83 -12 25 -53 30 -83 15 -95 -22 -19 -176
-46 -215 -38 -44 8 -96 60 -119 120 -14 38 -14 46 1 98 17 59 28 67 60 44z
m-85 -21 c0 -13 -420 -307 -437 -306 -27 1 16 35 212 169 121 82 221 150 223
150 1 1 2 -5 2 -13z m3130 -56 c0 -5 -5 -10 -11 -10 -5 0 -7 5 -4 10 3 6 8 10
11 10 2 0 4 -4 4 -10z m-3073 -167 c41 -43 96 -57 174 -43 34 6 63 9 66 7 10
-11 -24 -57 -78 -106 -77 -70 -105 -70 -185 0 -82 72 -101 103 -108 174 l-5
60 15 -35 c26 -59 65 -109 117 -151 27 -21 54 -39 58 -39 22 0 5 29 -35 59
-80 60 -126 141 -111 199 6 26 8 24 34 -33 15 -33 41 -74 58 -92z m-162 108
c-17 -16 -277 -197 -324 -225 -9 -6 -12 -5 -9 4 2 7 78 64 168 126 156 107
209 138 165 95z m1503 -152 c33 -96 51 -163 47 -177 -9 -37 -60 -52 -180 -52
-61 0 -116 -5 -128 -12 -12 -6 -51 -38 -86 -70 -128 -116 -240 -148 -526 -148
-102 0 -185 4 -185 8 0 5 11 19 25 32 14 14 67 84 117 158 56 82 114 153 149
185 36 31 55 55 50 60 -23 23 -126 -83 -227 -235 -75 -112 -154 -202 -211
-240 -41 -27 -163 -48 -163 -27 0 5 -17 17 -37 26 -21 8 -39 16 -41 18 -11 11
-72 193 -72 217 0 31 22 92 37 101 6 4 33 -3 62 -14 80 -30 132 -17 210 52 33
30 70 73 81 97 11 24 28 46 38 49 9 3 24 12 32 19 26 21 158 35 435 44 262 9
341 18 455 54 25 8 50 13 55 12 6 -1 34 -72 63 -157z m-1498 122 c0 -6 -74
-60 -165 -122 -91 -62 -163 -114 -161 -117 2 -2 70 42 151 97 80 56 149 101
152 101 17 0 -37 -42 -165 -131 -79 -54 -145 -99 -146 -99 -2 0 -3 12 -4 28 0
24 17 39 161 139 89 61 165 112 170 112 4 1 7 -3 7 -8z m74 -203 c49 -48 54
-57 28 -42 -19 11 -51 38 -73 61 -32 35 -39 50 -38 80 l1 38 10 -38 c7 -26 30
-58 72 -99z m-114 103 c0 -12 -275 -201 -292 -201 -20 0 7 22 147 119 131 91
145 99 145 82z m-1 -46 c-2 -6 -68 -54 -147 -108 -96 -65 -143 -92 -140 -80 3
17 266 204 281 200 5 -1 7 -7 6 -12z m11 -28 c-20 -18 -272 -211 -287 -221 -9
-5 -13 -1 -13 12 0 14 42 49 148 121 131 90 193 126 152 88z m3235 3 c3 -5 2
-10 -4 -10 -5 0 -13 5 -16 10 -3 6 -2 10 4 10 5 0 13 -4 16 -10z m-3246 -84
c-47 -45 -145 -103 -156 -92 -7 7 191 155 200 149 5 -3 -15 -29 -44 -57z
m-329 37 c0 -12 -249 -178 -256 -171 -3 3 39 37 93 74 54 37 109 76 123 85 27
20 40 23 40 12z m414 -21 c3 -5 -6 -31 -20 -58 -31 -61 -29 -94 16 -223 26
-74 39 -97 62 -111 l29 -17 -46 -12 c-42 -10 -49 -9 -76 10 -16 11 -36 33 -44
49 -22 43 -45 148 -45 208 0 50 3 56 51 108 52 54 63 61 73 46z m-417 -19 c-7
-11 -213 -153 -222 -153 -20 0 11 27 109 94 100 69 128 83 113 59z m-646 -151
c1 -20 -6 -82 -16 -138 -25 -144 -18 -183 48 -248 29 -28 60 -66 69 -84 21
-39 85 -71 143 -72 49 0 37 -12 -35 -35 -30 -10 -85 -31 -122 -46 l-67 -27
-31 47 c-119 187 -146 516 -59 719 l21 47 24 -63 c13 -35 24 -80 25 -100z
m659 123 c0 -9 -181 -126 -191 -123 -12 4 160 126 179 127 6 1 12 -1 12 -4z
m-2 -52 c0 -34 -6 -45 -19 -37 -6 4 -6 11 2 20 17 21 7 17 -61 -21 -35 -20
-64 -34 -67 -32 -3 4 127 95 138 96 4 1 7 -11 7 -26z m277 -203 c15 -61 25
-82 56 -114 l39 -38 -19 -27 c-16 -22 -41 -32 -148 -60 -70 -19 -184 -51 -251
-73 -68 -22 -131 -42 -140 -44 -13 -4 -12 -2 3 10 11 9 39 35 63 58 36 35 42
47 42 83 0 22 -4 45 -10 51 -6 6 -4 25 6 52 8 24 12 48 8 53 -3 5 4 24 15 43
12 18 21 42 21 52 0 22 23 90 33 100 4 4 7 -3 7 -15 0 -12 7 -24 15 -27 8 -3
63 16 122 43 l108 49 6 -61 c3 -33 14 -94 24 -135z m3532 150 c0 -28 -2 -50
-5 -50 -18 0 -72 42 -72 55 0 8 -7 15 -15 15 -8 0 -15 4 -15 9 0 6 20 8 45 6
25 -2 45 1 45 6 0 5 3 9 8 9 4 0 8 -23 9 -50z m-1853 -53 c54 -128 65 -166 75
-276 16 -180 -16 -294 -125 -438 -90 -120 -220 -208 -374 -253 -41 -12 -112
-35 -158 -51 -46 -16 -152 -40 -235 -54 -168 -28 -284 -64 -499 -156 -423
-181 -571 -216 -828 -198 -135 9 -372 9 -414 0 -16 -3 -31 -12 -34 -19 -3 -11
10 -12 64 -7 106 9 135 9 337 1 103 -5 187 -12 187 -16 0 -4 -14 -13 -31 -20
-60 -25 -151 -132 -239 -281 -175 -296 -314 -461 -530 -629 -69 -53 -171 -139
-227 -191 -139 -129 -394 -414 -514 -576 l-100 -134 -53 103 c-97 190 -214
360 -290 424 l-46 38 43 46 c24 25 79 90 122 145 43 55 106 129 140 165 86 91
236 268 299 354 77 104 122 179 268 453 71 135 147 274 168 309 61 99 96 173
120 254 55 186 131 284 273 354 201 99 879 307 1230 377 96 19 117 27 114 40
-3 10 11 24 42 41 45 25 52 26 271 31 244 5 284 12 397 67 34 17 94 60 133 96
49 45 78 64 98 65 15 0 72 1 127 2 56 2 109 8 120 14 11 7 22 13 25 13 3 0 23
-42 44 -93z m-2003 21 c-9 -26 -71 -45 -71 -22 0 16 39 44 62 44 14 0 16 -5 9
-22z m-246 -128 c-31 -21 -55 -26 -55 -12 0 17 25 32 55 32 l30 0 -30 -20z
m-2056 -84 c8 -10 9 -16 2 -21 -14 -8 -53 13 -46 26 9 13 31 11 44 -5z m113
-23 c18 -16 18 -16 12 0 -9 25 2 22 64 -19 2 -1 5 -10 7 -21 2 -10 4 -19 4
-20 3 -8 0 -13 -6 -13 -5 0 -8 4 -8 9 0 5 -3 13 -7 17 -5 4 -8 -2 -8 -13 0
-20 -1 -20 -52 -6 -57 17 -81 32 -60 40 6 3 12 13 12 24 0 24 17 24 42 2z
m5838 -50 c26 -7 26 -23 1 -23 -41 0 -51 11 -50 54 l1 41 14 -34 c8 -18 24
-35 34 -38z m-3100 18 c-11 -21 -23 -26 -85 -37 -37 -6 -39 -5 -24 10 9 10 38
23 65 31 27 7 50 14 52 14 1 1 -2 -8 -8 -18z m101 3 c-66 -14 -92 -12 -50 5
13 5 44 10 69 9 45 0 44 0 -19 -14z m-2661 -34 c0 -5 -4 -10 -10 -10 -5 0 -10
5 -10 10 0 6 5 10 10 10 6 0 10 -4 10 -10z m-119 -47 c9 -8 20 -13 25 -11 20
5 51 -13 49 -30 -2 -28 -15 -42 -40 -42 -13 0 -27 -5 -31 -12 -4 -7 -13 2 -23
23 -11 23 -24 35 -41 37 -36 5 -53 21 -40 37 8 9 8 15 0 20 -5 3 -10 10 -10
15 0 11 90 -18 111 -37z m5889 -72 c0 -18 -18 -21 -30 -6 -10 13 -9 15 9 15
11 0 21 -4 21 -9z m-5840 -125 c0 -3 -4 -8 -10 -11 -5 -3 -10 -1 -10 4 0 6 5
11 10 11 6 0 10 -2 10 -4z m10 -66 c0 -5 -7 -10 -15 -10 -8 0 -15 5 -15 10 0
6 7 10 15 10 8 0 15 -4 15 -10z m23 -70 c3 -13 0 -20 -8 -20 -7 0 -20 -3 -29
-6 -19 -7 -22 16 -4 34 18 18 35 15 41 -8z m-324 -82 c22 -12 43 -30 47 -40 3
-10 12 -18 20 -18 8 0 14 -4 14 -9 0 -16 -33 -21 -72 -12 -28 7 -38 5 -42 -5
-7 -19 -26 -18 -26 1 0 8 4 15 10 15 5 0 3 17 -5 39 -20 57 -10 63 54 29z
m-94 -28 c3 -5 1 -10 -4 -10 -6 0 -11 5 -11 10 0 6 2 10 4 10 3 0 8 -4 11 -10z
m85 -104 c0 -2 -7 -9 -15 -16 -13 -11 -14 -10 -9 4 5 14 24 23 24 12z m3981
-178 c-125 -145 -166 -247 -236 -579 -46 -214 -108 -408 -171 -531 -37 -71
-68 -114 -135 -183 -83 -87 -134 -159 -123 -177 10 -16 22 -8 35 24 7 18 52
71 99 118 47 48 99 110 115 139 39 67 77 85 251 117 108 20 190 28 369 34 240
8 306 20 407 71 21 11 40 19 42 19 3 0 31 -21 61 -47 30 -27 69 -59 85 -73 17
-14 38 -45 46 -70 22 -63 30 -220 14 -259 -15 -38 -40 -45 -220 -66 -73 -9
-165 -22 -204 -31 -152 -31 -389 -119 -671 -249 -346 -159 -481 -209 -658
-246 -88 -18 -110 -19 -162 -9 -124 24 -259 109 -314 195 l-28 44 3 323 2 323
40 180 c40 176 79 379 102 521 11 69 12 71 48 83 20 7 145 58 277 113 276 114
350 138 530 167 84 14 189 40 295 75 91 30 166 55 168 55 2 1 -28 -36 -67 -81z
m1729 -213 c6 3 10 -1 10 -9 0 -11 -9 -16 -30 -16 -24 0 -30 4 -30 20 0 18 3
19 20 10 11 -6 25 -8 30 -5z m220 -96 c0 -11 -27 -12 -34 -1 -2 4 4 9 15 9 10
1 19 -2 19 -8z m-5040 -418 c14 -27 13 -41 -4 -41 -14 0 -46 36 -46 52 0 16
40 7 50 -11z m3524 -34 c-7 -20 -13 -21 -34 -7 -13 9 -12 12 4 25 23 17 40 6
30 -18z m-3669 3 c3 -5 -3 -10 -14 -10 -12 0 -21 5 -21 10 0 6 6 10 14 10 8 0
18 -4 21 -10z m129 -35 c3 -8 12 -15 21 -15 8 0 15 -5 15 -11 0 -6 -6 -9 -14
-6 -8 3 -33 11 -56 17 -22 6 -38 15 -35 20 10 16 62 12 69 -5z m3566 -66 c0
-41 -12 -49 -48 -30 -9 5 -24 12 -32 14 -16 5 -19 35 -6 74 l7 22 40 -20 c35
-19 39 -25 39 -60z m695 60 c95 -27 138 -123 160 -354 22 -233 29 -257 129
-403 70 -104 80 -146 81 -357 0 -166 -1 -171 -28 -230 -44 -93 -102 -145 -164
-145 -60 0 -79 32 -103 170 -13 77 -48 141 -143 270 -68 91 -137 211 -137 238
0 24 -40 92 -70 118 l-29 26 22 30 c17 23 23 47 25 106 7 152 -30 265 -102
307 -23 14 -52 35 -65 48 l-22 24 43 47 c41 44 49 47 158 75 172 44 187 46
245 30z m-643 -101 c15 -22 16 -28 5 -28 -22 0 -33 21 -34 60 -1 19 1 26 4 15
3 -11 14 -32 25 -47z m-3592 -24 c-6 -14 -22 -41 -36 -60 -23 -29 -32 -34 -68
-33 l-41 0 25 17 c14 9 45 38 69 64 46 50 67 55 51 12z m3350 -9 c0 -8 -7 -15
-15 -15 -8 0 -15 7 -15 15 0 8 7 15 15 15 8 0 15 -7 15 -15z m107 -28 c3 -4
-17 -7 -45 -7 -44 0 -52 3 -52 18 0 10 3 21 6 24 5 6 78 -22 91 -35z m-142 3
c3 -5 -1 -10 -9 -10 -9 0 -16 5 -16 10 0 6 4 10 9 10 6 0 13 -4 16 -10z m1417
-45 c0 -5 -5 -11 -11 -13 -6 -2 -11 4 -11 13 0 9 5 15 11 13 6 -2 11 -8 11
-13z m-3092 -20 c0 -8 -4 -15 -10 -15 -5 0 -7 7 -4 15 4 8 8 15 10 15 2 0 4
-7 4 -15z m-576 -400 c-4 -8 -10 -15 -15 -15 -4 0 -6 7 -3 15 4 8 10 15 15 15
4 0 6 -7 3 -15z m-2753 -300 c16 -9 61 -36 100 -61 87 -57 289 -154 390 -188
58 -19 106 -27 195 -32 140 -7 187 -17 214 -46 21 -23 30 -45 85 -218 63 -194
130 -300 191 -300 28 0 29 -4 8 -84 -32 -125 -112 -259 -174 -291 -42 -22 -70
-7 -156 79 -174 176 -289 235 -524 271 -58 8 -126 22 -152 31 -86 28 -181 158
-264 361 -96 235 -96 351 -3 458 35 39 47 42 90 20z m1147 -4 c27 -23 28 -33
2 -56 -19 -17 -20 -17 -30 9 -12 32 -13 66 -2 66 4 -1 17 -9 30 -19z m109
-118 c45 -60 167 -255 180 -289 3 -7 -25 -47 -62 -89 -77 -88 -132 -170 -171
-255 -15 -33 -32 -60 -37 -60 -18 0 -66 62 -93 118 -15 31 -49 124 -75 206
-27 82 -55 159 -63 171 -14 21 -12 23 24 39 22 10 78 59 137 120 54 58 100
105 104 105 3 1 28 -29 56 -66z m227 -390 c19 -55 20 -63 5 -63 -12 0 -79 52
-79 61 0 13 42 59 50 54 4 -3 15 -26 24 -52z"/>
<path d="M6522 6108 c-7 -7 -12 -21 -12 -33 0 -12 5 -26 12 -33 7 -7 21 -12
33 -12 12 0 26 5 33 12 7 7 12 21 12 33 0 12 -5 26 -12 33 -7 7 -21 12 -33 12
-12 0 -26 -5 -33 -12z m48 -33 c0 -8 -7 -15 -15 -15 -8 0 -15 7 -15 15 0 8 7
15 15 15 8 0 15 -7 15 -15z"/>
<path d="M6345 6020 c-15 -17 -16 -24 -7 -45 11 -25 34 -31 66 -19 23 9 21 61
-3 74 -27 14 -35 13 -56 -10z m45 -25 c0 -8 -7 -15 -15 -15 -16 0 -20 12 -8
23 11 12 23 8 23 -8z"/>
<path d="M6626 5957 c-25 -18 -18 -67 12 -78 17 -6 27 -4 42 11 25 25 25 35 0
60 -24 24 -30 24 -54 7z m39 -35 c0 -18 -20 -15 -23 4 -3 10 1 15 10 12 7 -3
13 -10 13 -16z"/>
<path d="M6182 5948 c-26 -26 -7 -78 28 -78 19 0 50 30 50 48 0 32 -54 54 -78
30z m40 -33 c0 -5 -5 -11 -11 -13 -6 -2 -11 4 -11 13 0 9 5 15 11 13 6 -2 11
-8 11 -13z"/>
<path d="M6447 5862 c-30 -33 -15 -72 28 -72 42 0 59 44 29 74 -20 21 -37 20
-57 -2z m38 -42 c-5 -8 -11 -8 -17 -2 -6 6 -7 16 -3 22 5 8 11 8 17 2 6 -6 7
-16 3 -22z"/>
<path d="M6236 5777 c-12 -9 -17 -23 -14 -42 2 -25 8 -31 33 -33 19 -3 33 2
42 14 17 24 17 30 -7 54 -24 24 -30 24 -54 7z m39 -28 c10 -15 -1 -23 -20 -15
-9 3 -13 10 -10 16 8 13 22 13 30 -1z"/>
<path d="M7580 3486 c0 -17 14 -29 23 -20 8 8 -3 34 -14 34 -5 0 -9 -6 -9 -14z"/>
<path d="M8270 3069 c0 -5 5 -7 10 -4 6 3 10 8 10 11 0 2 -4 4 -10 4 -5 0 -10
-5 -10 -11z"/>
</g>
</svg>
